<svg width="41" height="41" viewBox="0 0 41 41" fill="none" xmlns="http://www.w3.org/2000/svg">
<circle cx="20.0555" cy="20.1025" r="20" fill="#FA5A7D"/>
<path fill-rule="evenodd" clip-rule="evenodd" d="M13.0555 13.1025C11.951 13.1025 11.0555 13.998 11.0555 15.1025V29.1025C11.0555 30.2071 11.951 31.1025 13.0555 31.1025H27.0555C28.1601 31.1025 29.0555 30.2071 29.0555 29.1025V15.1025C29.0555 13.998 28.1601 13.1025 27.0555 13.1025H13.0555ZM16.0555 23.1025C16.0555 22.5502 15.6078 22.1025 15.0555 22.1025C14.5033 22.1025 14.0555 22.5502 14.0555 23.1025V27.1025C14.0555 27.6548 14.5033 28.1025 15.0555 28.1025C15.6078 28.1025 16.0555 27.6548 16.0555 27.1025V23.1025ZM20.0555 19.1025C20.6078 19.1025 21.0555 19.5502 21.0555 20.1025V27.1025C21.0555 27.6548 20.6078 28.1025 20.0555 28.1025C19.5033 28.1025 19.0555 27.6548 19.0555 27.1025V20.1025C19.0555 19.5502 19.5033 19.1025 20.0555 19.1025ZM26.0555 17.1025C26.0555 16.5502 25.6078 16.1025 25.0555 16.1025C24.5033 16.1025 24.0555 16.5502 24.0555 17.1025V27.1025C24.0555 27.6548 24.5033 28.1025 25.0555 28.1025C25.6078 28.1025 26.0555 27.6548 26.0555 27.1025V17.1025Z" fill="white"/>
</svg>
